<?xml version='1.0' encoding='utf-8'?>
<svg xmlns="http://www.w3.org/2000/svg" width="91.44mm" height="91.44mm" version="1.1" style="shape-rendering:geometricPrecision; text-rendering:geometricPrecision; image-rendering:optimizeQuality; fill-rule:evenodd; clip-rule:evenodd" viewBox="0 0 9144 9144"> <defs> <style type="text/css">  .fil0 {fill:none} .fil1 {fill:#011627;fill-rule:nonzero}  </style> </defs> <g id="Layer_x0020_1"> <metadata id="CorelCorpID_0Corel-Layer"/> <g id="_2744621482624"> <polygon class="fil0" points="0,0 9144,0 9144,9144 0,9144 "/> <path class="fil1" d="M4586 3765c219,4 417,95 560,241 145,146 234,349 233,571 -2,223 -94,424 -241,569 -146,145 -349,234 -571,233 -223,-2 -424,-94 -569,-241 -145,-146 -234,-348 -233,-571l0 -9c4,-219 95,-417 241,-560 146,-145 348,-234 571,-233l9 0zm679 -1296c56,19 112,40 168,63 56,24 111,50 165,78 41,22 57,72 35,114l-1 2c-36,65 -59,135 -68,207 -9,63 -7,126 4,188 93,64 179,136 257,215 78,79 149,166 211,260 62,12 126,14 189,6 72,-8 143,-30 208,-65 41,-22 92,-7 114,35l1 1c28,55 53,110 75,166 23,55 43,112 62,171 14,45 -11,92 -56,106l-2 0c-71,21 -137,54 -195,98 -50,38 -93,84 -129,136 8,47 15,95 20,143 6,60 9,120 9,179 0,63 -3,127 -10,191 -6,53 -14,105 -24,155 35,52 78,98 128,137 57,44 122,79 194,100 44,14 70,61 56,106 0,2 -1,4 -2,6 -18,55 -39,111 -62,166 -24,56 -50,111 -78,164 -22,42 -73,58 -114,36l-5 -3c-64,-34 -133,-57 -204,-66 -63,-9 -126,-7 -188,4 -64,93 -136,179 -215,257 -79,78 -166,149 -260,211 -12,62 -14,126 -6,188 8,73 30,143 65,209 22,41 7,92 -35,114l-1 1c-55,27 -110,53 -166,75 -55,23 -113,44 -171,62 -45,14 -92,-11 -106,-56l0 -2c-21,-72 -55,-138 -98,-195 -38,-50 -84,-93 -136,-129 -47,8 -95,15 -143,20 -60,6 -120,9 -179,9 -63,0 -127,-3 -191,-10 -53,-6 -105,-14 -155,-24 -52,35 -98,78 -137,128 -44,56 -79,122 -100,194 -14,44 -61,70 -106,56l-6 -2c-55,-18 -111,-39 -166,-62 -56,-24 -111,-50 -164,-78 -42,-22 -58,-73 -36,-114l1 -2c36,-65 59,-135 68,-207 9,-63 7,-126 -4,-188 -93,-64 -179,-136 -257,-215 -78,-79 -149,-166 -211,-260 -62,-12 -126,-14 -188,-6 -73,8 -143,30 -209,65 -41,22 -92,7 -114,-35l-1 -1c-27,-55 -53,-110 -75,-166 -23,-55 -44,-112 -62,-171 -14,-45 11,-92 56,-106l2 0c71,-21 137,-55 195,-98 50,-38 93,-84 129,-136 -8,-47 -15,-95 -20,-143 -6,-60 -9,-120 -9,-179 0,-63 3,-127 10,-191 6,-53 14,-105 24,-155 -35,-52 -78,-98 -128,-137 -56,-44 -122,-79 -194,-100 -44,-14 -70,-61 -56,-106l2 -6c18,-55 39,-111 62,-166 24,-56 50,-111 78,-165 22,-41 73,-57 114,-35l2 1c65,36 135,59 207,68 63,9 126,7 188,-4 64,-93 136,-179 215,-257 79,-78 166,-149 260,-211 12,-62 14,-126 6,-189 -8,-72 -30,-143 -65,-208 -22,-41 -7,-92 35,-114l1 -1c55,-27 110,-53 165,-75 56,-23 113,-43 172,-62 45,-14 92,11 106,56l0 2c21,71 55,137 98,195 38,50 84,93 136,129 47,-8 95,-15 143,-20 60,-6 120,-9 179,-9 63,0 127,3 191,10 53,6 105,14 155,24 52,-35 98,-78 137,-128 44,-57 79,-122 100,-193 14,-45 61,-71 106,-57l4 1zm102 219c-26,-11 -53,-22 -80,-32 -26,60 -59,115 -99,166 -56,72 -125,133 -204,181 -19,15 -44,21 -69,15 -57,-12 -113,-22 -170,-28 -56,-6 -113,-9 -173,-9 -57,0 -111,3 -163,8 -52,5 -103,13 -153,23 -22,6 -47,4 -68,-9 -80,-50 -151,-114 -208,-189 -39,-51 -72,-107 -97,-167 -27,9 -54,20 -81,31 -27,10 -53,22 -79,34 24,61 40,124 47,188 12,93 6,188 -17,280l-1 0c-5,20 -17,38 -36,50 -94,60 -182,131 -261,209 -80,79 -151,165 -212,258 -12,18 -30,31 -52,36 -92,22 -187,27 -280,15 -64,-9 -127,-26 -188,-51 -12,27 -24,53 -35,80 -11,26 -22,53 -32,80 60,26 115,59 166,99 73,57 135,126 183,205 13,19 19,43 13,68 -12,56 -22,113 -28,170 -6,56 -9,113 -9,173 0,57 3,111 8,163 5,52 13,103 23,154 6,21 4,46 -9,67 -50,80 -114,151 -189,208 -52,39 -108,72 -168,97 10,27 20,54 31,81 11,27 23,53 35,79 61,-24 124,-40 188,-48 93,-11 188,-5 280,18l0 1c20,5 38,17 50,36 61,94 131,182 209,261 79,80 165,151 258,212 18,12 31,30 36,52 23,92 27,187 15,280 -9,64 -26,127 -51,188 27,12 53,24 80,35 26,11 53,22 80,32 26,-60 59,-115 99,-166 57,-73 126,-135 205,-183 19,-13 43,-19 68,-13 56,12 113,22 170,28 56,6 113,9 173,9 57,0 111,-3 163,-8 52,-5 103,-13 154,-23 22,-6 46,-4 67,9 80,49 151,114 208,189 39,52 72,108 97,168 27,-10 54,-20 81,-31 27,-11 53,-23 79,-35 -24,-61 -40,-124 -47,-188 -12,-93 -6,-188 17,-280l1 0c5,-20 17,-38 36,-50 94,-61 182,-131 261,-209 80,-79 151,-165 212,-258 12,-18 30,-31 52,-36 92,-23 187,-27 280,-15 64,9 127,26 188,51 12,-27 24,-53 35,-80 11,-26 22,-53 32,-80 -60,-26 -115,-59 -166,-99 -73,-57 -135,-127 -183,-205 -13,-19 -19,-43 -13,-68 12,-57 22,-113 28,-170 6,-56 9,-113 9,-173 0,-57 -3,-111 -8,-163 -5,-52 -13,-103 -23,-154 -6,-21 -4,-46 9,-67 50,-80 114,-151 189,-208 51,-39 107,-72 168,-97 -10,-27 -21,-54 -31,-81 -11,-27 -23,-53 -35,-79 -61,24 -124,40 -188,47 -93,12 -188,6 -280,-17l0 -1c-20,-5 -38,-17 -50,-36 -61,-94 -131,-182 -209,-261 -79,-80 -165,-151 -258,-212 -18,-12 -31,-30 -36,-52 -23,-92 -27,-187 -15,-280 9,-64 26,-127 51,-188 -26,-12 -53,-24 -80,-35zm-341 1436c-113,-115 -269,-187 -443,-190l-6 0c-177,-1 -337,69 -453,184 -115,113 -187,269 -190,443l0 6c-1,177 69,337 184,453 115,116 274,189 449,190 177,1 337,-69 453,-184 116,-115 189,-274 190,-449 1,-177 -69,-337 -184,-453z"/> </g> </g> </svg>